#!OML:ASF Y:\EmotionMaleHayes\Project 1\Capture day 1\Session 1\Male1.ASF
:FULLY-SPECIFIED
:DEGREES
126
root -24.7194 15.5167 0.0629788 97.341 75.7084 84.8198
lowerback 14.9063 0.68032 -16.8451
upperback 5.01726 -1.17735 -5.31959
thorax -2.5994 -0.394162 3.89912
lowerneck -25.7483 2.00101 1.92501
upperneck 13.2251 2.119 -0.372737
head 8.29217 1.06996 -0.132947
rclavicle 1.63003e-014 6.20208e-014
rhumerus -55.9091 12.1306 -98.2926
rradius 64.2663
rwrist -27.5601
rhand -24.3472 -34.1201
rfingers 7.12502
rthumb 2.14203 -64.0891
lclavicle 1.63003e-014 6.20208e-014
lhumerus -38.6502 -25.7295 94.6054
lradius 66.1636
lwrist 18.5689
lhand -33.188 -26.3034
lfingers 7.12502
lthumb -6.39574 3.58001
rfemur -39.0088 0.157314 1.59638
rtibia 82.5603
rfoot -21.9507 -3.39817
rtoes 1.71562
lfemur 0.383521 -0.323672 -37.4266
ltibia 23.4556
lfoot -34.3839 3.55666
ltoes -16.4784
127
root -24.5833 15.4627 0.047495 98.2126 75.4718 85.3699
lowerback 14.8719 0.599005 -17.0107
upperback 5.04385 -1.28832 -5.36423
thorax -2.52308 -0.451575 3.95648
lowerneck -25.4575 1.9537 1.87442
upperneck 12.8137 2.06365 -0.281202
head 8.10268 1.05255 -0.10567
rclavicle -3.57812e-015 -2.8625e-014
rhumerus -58.126 11.5153 -97.8746
rradius 64.5094
rwrist -27.2831
rhand -24.9849 -34.4713
rfingers 7.12502
rthumb 1.52615 -64.4456
lclavicle -3.57812e-015 -2.8625e-014
lhumerus -37.1796 -26.251 94.6389
lradius 68.0232
lwrist 18.5079
lhand -33.9081 -27.612
lfingers 7.12502
lthumb -7.09085 2.24922
rfemur -41.4136 -0.901782 1.89793
rtibia 84.5064
rfoot -21.9772 -4.41929
rtoes 2.76366
lfemur 0.669427 -0.164945 -37.6141
ltibia 23.376
lfoot -34.5012 3.18273
ltoes -17.3424
128
root -24.4394 15.4161 0.0345257 99.606 75.6149 86.4241
lowerback 14.664 0.411242 -17.093
upperback 5.22672 -1.46718 -5.04949
thorax -2.16075 -0.581184 4.3651
lowerneck -25.7669 2.01323 1.57471
upperneck 12.6625 2.2428 -0.273599
head 8.09824 1.12302 -0.0284649
rclavicle -1.27222e-014 -1.55052e-014
rhumerus -60.0654 11.5589 -97.2615
rradius 64.6664
rwrist -27.1155
rhand -26.0734 -34.6918
rfingers 7.12502
rthumb 0.474884 -64.671
lclavicle -1.27222e-014 -1.55052e-014
lhumerus -35.2833 -26.2159 94.7549
lradius 69.8992
lwrist 18.0728
lhand -34.4634 -28.7021
lfingers 7.12502
lthumb -7.62682 1.14041
rfemur -43.7829 -1.97967 2.71323
rtibia 86.1311
rfoot -22.0774 -5.40518
rtoes 3.8548
lfemur 1.06283 -0.0234666 -37.2765
ltibia 23.069
lfoot -34.5225 2.59051
ltoes -18.379
129
root -24.3633 15.3626 0.0654388 108.922 75.3819 94.5543
lowerback 15.5114 -0.328208 -16.9216
upperback 4.45239 -2.73342 -4.72156
thorax -3.22436 -1.10287 4.85495
lowerneck -25.7051 2.09203 1.36982
upperneck 12.9398 2.36083 0.0319525
head 8.17765 1.20082 0.125694
rclavicle -1.15295e-014 -2.74323e-014
rhumerus -62.8459 11.2546 -96.9948
rradius 64.7333
rwrist -26.2655
rhand -26.9639 -35.3382
rfingers 7.12502
rthumb -0.385238 -65.3176
lclavicle -1.15295e-014 -2.74323e-014
lhumerus -34.6239 -25.9377 95.1757
lradius 72.135
lwrist 17.1902
lhand -34.3132 -29.4146
lfingers 7.12502
lthumb -7.48186 0.433059
rfemur -47.124 -4.94689 3.8093
rtibia 87.9418
rfoot -22.6093 -6.48445
rtoes 4.02275
lfemur -0.135694 -1.22171 -36.7107
ltibia 23.7613
lfoot -34.3691 1.05933
ltoes -18.8284
130
root -24.1571 15.3466 0.0289747 107.096 75.5612 92.9516
lowerback 15.5924 -0.293591 -16.6712
upperback 4.50883 -2.66269 -4.71873
thorax -3.23666 -1.07179 4.71437
lowerneck -25.6022 2.13425 1.13347
upperneck 12.932 2.43557 0.377923
head 8.15127 1.26232 0.290419
rclavicle 3.10104e-014 1.90833e-014
rhumerus -65.5229 11.1305 -96.7613
rradius 65.4337
rwrist -25.9574
rhand -27.5481 -35.835
rfingers 7.12502
rthumb -0.949424 -65.8126
lclavicle 3.10104e-014 1.90833e-014
lhumerus -33.6466 -25.5915 95.4176
lradius 74.4409
lwrist 16.0935
lhand -33.9184 -29.7007
lfingers 7.12502
lthumb -7.10081 0.16019
rfemur -48.2502 -5.18749 4.26727
rtibia 88.2235
rfoot -23.0185 -7.54274
rtoes 2.48638
lfemur 1.59236 -0.837025 -36.6646
ltibia 22.3693
lfoot -34.1612 0.733846
ltoes -18.4179
131
root -23.9593 15.3382 0.000843068 106.034 75.7222 91.8535
lowerback 15.3778 -0.264319 -16.605
upperback 4.62468 -2.5533 -4.54632
thorax -3.00997 -1.04631 4.84007
lowerneck -25.8455 2.12582 1.03462
upperneck 13.1221 2.46895 0.300131
head 8.25498 1.26329 0.28831
rclavicle -2.66371e-014 -7.4743e-014
rhumerus -68.161 11.0765 -96.3362
rradius 66.5122
rwrist -26.3869
rhand -28.1283 -35.8952
rfingers 7.12502
rthumb -1.50985 -65.8696
lclavicle -2.66371e-014 -7.4743e-014
lhumerus -32.3559 -25.5254 95.7601
lradius 76.595
lwrist 15.0196
lhand -33.4146 -30.1386
lfingers 7.12502
lthumb -6.61449 -0.261885
rfemur -49.7234 -5.48208 4.75507
rtibia 88.3178
rfoot -22.005 -8.38349
rtoes -1.99748
lfemur 2.91911 -0.326341 -36.4721
ltibia 21.0709
lfoot -33.8376 0.279042
ltoes -18.5941
132
root -23.7959 15.3348 -0.00432546 108.703 75.5845 94.1601
lowerback 15.5456 -0.530062 -16.4367
upperback 4.50039 -2.93127 -4.46956
thorax -3.17006 -1.21647 4.90017
lowerneck -26.1426 2.21541 1.3173
upperneck 13.4764 2.5174 0.129393
head 8.43057 1.28074 0.19772
rclavicle 1.15295e-014 3.18055e-015
rhumerus -70.6652 10.8755 -96.1767
rradius 67.2343
rwrist -26.822
rhand -28.6134 -35.7861
rfingers 7.12502
rthumb -1.97832 -65.7567
lclavicle 1.15295e-014 3.18055e-015
lhumerus -31.3219 -25.7514 95.9095
lradius 78.7384
lwrist 14.0545
lhand -32.7719 -31.1425
lfingers 7.12502
lthumb -5.99399 -1.24732
rfemur -51.6043 -6.67372 5.24273
rtibia 88.3212
rfoot -21.8285 -8.51387
rtoes 0.431625
lfemur 3.69471 -0.732471 -36.374
ltibia 20.0236
lfoot -33.3458 -0.356115
ltoes -18.1858
133
root -23.6049 15.3402 -0.0190859 109.799 75.6523 95.2109
lowerback 15.4027 -0.748204 -16.1893
upperback 4.67098 -3.11985 -4.36561
thorax -2.87753 -1.33904 4.90005
lowerneck -26.3275 2.4309 1.59801
upperneck 13.4913 2.73756 -0.0292537
head 8.47266 1.38181 0.132762
rclavicle -1.55052e-014 1.86858e-014
rhumerus -72.7116 10.9752 -96.0346
rradius 67.7526
rwrist -27.3006
rhand -28.8536 -35.5333
rfingers 7.12502
rthumb -2.21035 -65.5016
lclavicle -1.55052e-014 1.86858e-014
lhumerus -30.2226 -25.7986 95.9671
lradius 80.8316
lwrist 12.9761
lhand -32.5057 -32.4827
lfingers 7.12502
lthumb -5.73697 -2.58037
rfemur -52.9445 -7.32638 5.75718
rtibia 87.9431
rfoot -21.7852 -8.3309
rtoes 1.12474
lfemur 5.21404 -1.44965 -36.3695
ltibia 18.4275
lfoot -32.6911 -0.629699
ltoes -16.6451
134
root -23.3881 15.3594 -0.0404062 109.077 76.0285 94.6967
lowerback 15.8704 -0.751813 -15.8475
upperback 4.52431 -3.19999 -4.11183
thorax -3.28798 -1.35302 5.02481
lowerneck -26.4722 2.66635 1.68694
upperneck 13.8914 3.08077 -0.337322
head 8.64339 1.50999 0.0674807
rclavicle -1.19271e-015 -1.27222e-014
rhumerus -75.4229 11.3028 -95.9392
rradius 68.5496
rwrist -27.7136
rhand -29.1556 -34.9252
rfingers 7.12502
rthumb -2.50196 -64.8903
lclavicle -1.19271e-015 -1.27222e-014
lhumerus -29.9252 -25.5616 96.5185
lradius 82.957
lwrist 11.8879
lhand -32.3782 -33.5177
lfingers 7.12502
lthumb -5.61394 -3.61206
rfemur -53.7607 -7.26675 6.41107
rtibia 87.2005
rfoot -22.1278 -7.92751
rtoes -0.915945
lfemur 7.11923 -1.59615 -36.1106
ltibia 16.6255
lfoot -31.9265 -0.331871
ltoes -17.7918
135
root -23.1381 15.3892 -0.080814 105.094 76.4612 90.9646
lowerback 15.8329 -0.558246 -15.5273
upperback 4.57337 -2.89342 -3.95603
thorax -3.28868 -1.2145 4.96886
lowerneck -26.9405 2.74872 1.69911
upperneck 14.5411 3.24578 -0.657739
head 8.95311 1.54496 -0.0104625
rclavicle -5.56597e-015 -5.24792e-014
rhumerus -77.9203 11.6989 -95.8794
rradius 69.5095
rwrist -28.1383
rhand -29.4999 -34.2846
rfingers 7.12502
rthumb -2.83448 -64.2455
lclavicle -5.56597e-015 -5.24792e-014
lhumerus -29.3219 -25.5182 96.926
lradius 84.9313
lwrist 11.2278
lhand -32.5635 -33.6125
lfingers 7.12502
lthumb -5.79275 -3.71171
rfemur -54.3581 -6.54785 6.75969
rtibia 86.044
rfoot -22.3693 -7.53477
rtoes -2.21622
lfemur 9.22249 -1.11017 -36.0874
ltibia 14.5747
lfoot -31.0753 0.637638
ltoes -20.732
136
root -22.9311 15.4175 -0.0894487 105.792 76.6134 91.5214
lowerback 15.9298 -0.669108 -15.1131
upperback 4.48547 -3.01271 -3.87613
thorax -3.43954 -1.26467 4.85612
lowerneck -27.1531 2.85463 1.90985
upperneck 14.9355 3.33083 -0.762564
head 9.13272 1.58157 -0.0621128
rclavicle -2.08724e-014 9.54166e-015
rhumerus -80.292 11.7081 -96.0758
rradius 70.5174
rwrist -28.5464
rhand -29.6309 -34.4409
rfingers 7.12502
rthumb -2.961 -64.4
lclavicle -2.08724e-014 9.54166e-015
lhumerus -28.8836 -26.0604 97.071
lradius 86.8673
lwrist 10.8674
lhand -33.2909 -33.5487
lfingers 7.12502
lthumb -6.495 -3.66833
rfemur -55.3542 -6.81494 7.20194
rtibia 84.8311
rfoot -22.4355 -7.18073
rtoes -0.819825
lfemur 10.4946 -1.24424 -35.8553
ltibia 13.1895
lfoot -30.0958 0.511367
ltoes -21.3906
137
root -22.7179 15.4491 -0.0968048 107.143 76.7504 92.822
lowerback 16.5203 -0.841173 -15.0429
upperback 4.12463 -3.39525 -3.4973
thorax -4.06557 -1.40551 5.32434
lowerneck -26.9957 3.15451 2.09233
upperneck 15.2682 3.74235 -1.07434
head 9.24006 1.74491 -0.136
rclavicle -6.36111e-015 -2.78299e-015
rhumerus -83.1398 12.3416 -96.3109
rradius 71.6731
rwrist -28.9155
rhand -29.578 -34.8494
rfingers 7.12502
rthumb -2.90992 -64.8093
lclavicle -6.36111e-015 -2.78299e-015
lhumerus -29.0783 -26.2486 97.6369
lradius 88.7521
lwrist 10.3363
lhand -34.4147 -33.9508
lfingers 7.12502
lthumb -7.57987 -4.10667
rfemur -55.9432 -7.25055 7.62627
rtibia 83.1186
rfoot -22.5548 -7.22851
rtoes -0.419598
lfemur 11.941 -1.64994 -35.6877
ltibia 11.7195
lfoot -28.8841 0.635121
ltoes -21.8781
138
root -22.5121 15.4832 -0.0996941 108.665 77.0589 94.1299
lowerback 16.445 -1.17338 -14.84
upperback 4.1529 -3.77436 -3.13759
thorax -3.90903 -1.61298 5.66345
lowerneck -27.1192 3.54035 2.3904
upperneck 15.2926 4.19762 -1.28053
head 9.28724 1.94927 -0.182784
rclavicle 4.29375e-014 3.10104e-014
rhumerus -85.0975 13.2573 -96.7559
rradius 72.6517
rwrist -29.3562
rhand -29.6408 -34.6854
rfingers 7.12502
rthumb -2.97057 -64.6444
lclavicle 4.29375e-014 3.10104e-014
lhumerus -28.4975 -26.6216 97.5501
lradius 90.3688
lwrist 9.87767
lhand -35.814 -34.5991
lfingers 7.12502
lthumb -8.93032 -4.80811
rfemur -56.7147 -7.49832 8.27216
rtibia 81.277
rfoot -22.6595 -7.50477
rtoes -2.52555
lfemur 12.9119 -1.98364 -35.2311
ltibia 10.677
lfoot -27.4546 0.958592
ltoes -23.3162
139
root -22.2931 15.5248 -0.101412 108.954 77.5547 94.2163
lowerback 16.589 -1.32214 -14.4565
upperback 3.99959 -3.95686 -2.81294
thorax -4.12685 -1.69396 5.8491
lowerneck -27.3935 3.79708 2.60138
upperneck 15.7014 4.48586 -1.37456
head 9.48962 2.07999 -0.196409
rclavicle 8.34896e-015 6.67916e-014
rhumerus -87.2179 13.8967 -97.2611
rradius 73.6189
rwrist -29.8424
rhand -29.8703 -34.0468
rfingers 7.12502
rthumb -3.19218 -64.0026
lclavicle 8.34896e-015 6.67916e-014
lhumerus -28.3498 -27.2196 97.5744
lradius 91.9777
lwrist 10.0719
lhand -36.7545 -35.6638
lfingers 7.12502
lthumb -9.83775 -5.91357
rfemur -57.3051 -7.29165 9.01065
rtibia 79.2448
rfoot -22.6342 -7.71658
rtoes -4.53289
lfemur 13.8091 -1.96721 -34.5757
ltibia 9.76086
lfoot -25.8472 1.01181
ltoes -24.3578
140
root -22.0534 15.5714 -0.109156 110.361 77.6588 95.6104
lowerback 16.9563 -1.51668 -14.2835
upperback 3.80395 -4.26925 -2.46974
thorax -4.46512 -1.82355 6.20753
lowerneck -27.5364 4.04373 2.80296
upperneck 16.2435 4.8215 -1.69328
head 9.7278 2.20315 -0.280045
rclavicle -4.19436e-014 -1.07344e-014
rhumerus -89.4594 14.4968 -97.6119
rradius 74.71
rwrist -30.3482
rhand -30.0176 -33.3206
rfingers 7.12502
rthumb -3.33445 -63.2743
lclavicle -4.19436e-014 -1.07344e-014
lhumerus -28.4812 -27.8678 97.8305
lradius 93.5803
lwrist 10.7744
lhand -37.5732 -36.9306
lfingers 7.12502
lthumb -10.6276 -7.21932
rfemur -57.2272 -7.60494 9.28061
rtibia 76.8317
rfoot -22.6696 -7.34618
rtoes -4.73666
lfemur 14.9385 -2.02269 -34.2741
ltibia 8.94914
lfoot -23.9682 0.737118
ltoes -24.6369
